<mxfile host="65bd71144e" pages="1">
    <diagram id="s0H36gPxGhn2VIy_i9Ih" name="Page-1">
        <mxGraphModel dx="1982" dy="1422" grid="0" gridSize="10" guides="1" tooltips="1" connect="1" arrows="0" fold="1" page="1" pageScale="1" pageWidth="1200" pageHeight="1600" background="#ffffff" math="0" shadow="0">
            <root>
                <mxCell id="0"/>
                <mxCell id="1" parent="0"/>
                <mxCell id="90" style="edgeStyle=orthogonalEdgeStyle;rounded=0;orthogonalLoop=1;jettySize=auto;html=1;strokeColor=#0D0D0D;" parent="1" source="49" target="71" edge="1">
                    <mxGeometry relative="1" as="geometry"/>
                </mxCell>
                <mxCell id="49" value="教育城域网&lt;br&gt;" style="whiteSpace=wrap;html=1;verticalAlign=top;" parent="1" vertex="1">
                    <mxGeometry x="551.25" y="221" width="90" height="30" as="geometry"/>
                </mxCell>
                <mxCell id="165" style="edgeStyle=orthogonalEdgeStyle;rounded=0;orthogonalLoop=1;jettySize=auto;html=1;entryX=0.5;entryY=0;entryDx=0;entryDy=0;entryPerimeter=0;strokeWidth=2;fillColor=#1ba1e2;strokeColor=#000000;shape=link;" parent="1" source="71" target="96" edge="1">
                    <mxGeometry relative="1" as="geometry"/>
                </mxCell>
                <mxCell id="71" value="" style="shape=mxgraph.cisco.routers.router;html=1;pointerEvents=1;dashed=0;fillColor=#036897;strokeColor=#ffffff;strokeWidth=2;verticalLabelPosition=bottom;verticalAlign=top;align=center;outlineConnect=0;" parent="1" vertex="1">
                    <mxGeometry x="549.5" y="306" width="91" height="60" as="geometry"/>
                </mxCell>
                <mxCell id="286" style="edgeStyle=orthogonalEdgeStyle;rounded=0;orthogonalLoop=1;jettySize=auto;html=1;exitX=1;exitY=0.5;exitDx=0;exitDy=0;exitPerimeter=0;entryX=0;entryY=0.5;entryDx=0;entryDy=0;entryPerimeter=0;strokeColor=#000000;strokeWidth=4;shape=link;" parent="1" target="283" edge="1">
                    <mxGeometry relative="1" as="geometry">
                        <mxPoint x="659" y="786.5" as="sourcePoint"/>
                    </mxGeometry>
                </mxCell>
                <mxCell id="314" style="edgeStyle=orthogonalEdgeStyle;rounded=0;orthogonalLoop=1;jettySize=auto;html=1;exitX=0;exitY=0.5;exitDx=0;exitDy=0;exitPerimeter=0;strokeColor=#000000;strokeWidth=2;shape=link;" parent="1" source="96" target="121" edge="1">
                    <mxGeometry relative="1" as="geometry"/>
                </mxCell>
                <mxCell id="318" style="edgeStyle=orthogonalEdgeStyle;rounded=0;orthogonalLoop=1;jettySize=auto;html=1;exitX=0.5;exitY=1;exitDx=0;exitDy=0;exitPerimeter=0;entryX=0.5;entryY=0;entryDx=0;entryDy=0;entryPerimeter=0;strokeColor=#000000;strokeWidth=4;shape=link;" parent="1" source="96" target="100" edge="1">
                    <mxGeometry relative="1" as="geometry">
                        <Array as="points">
                            <mxPoint x="593" y="1000"/>
                            <mxPoint x="295" y="1000"/>
                        </Array>
                    </mxGeometry>
                </mxCell>
                <mxCell id="319" style="edgeStyle=orthogonalEdgeStyle;rounded=0;orthogonalLoop=1;jettySize=auto;html=1;exitX=0.5;exitY=1;exitDx=0;exitDy=0;exitPerimeter=0;strokeColor=#000000;strokeWidth=4;shape=link;" parent="1" source="96" target="123" edge="1">
                    <mxGeometry relative="1" as="geometry">
                        <Array as="points">
                            <mxPoint x="593" y="1000"/>
                            <mxPoint x="908" y="1000"/>
                        </Array>
                    </mxGeometry>
                </mxCell>
                <mxCell id="323" style="edgeStyle=orthogonalEdgeStyle;rounded=0;orthogonalLoop=1;jettySize=auto;html=1;exitX=1;exitY=0;exitDx=0;exitDy=0;exitPerimeter=0;entryX=0;entryY=0.5;entryDx=0;entryDy=0;entryPerimeter=0;strokeColor=#000000;strokeWidth=1;" parent="1" source="96" target="180" edge="1">
                    <mxGeometry relative="1" as="geometry"/>
                </mxCell>
                <mxCell id="324" style="edgeStyle=orthogonalEdgeStyle;rounded=0;orthogonalLoop=1;jettySize=auto;html=1;exitX=1;exitY=0;exitDx=0;exitDy=0;exitPerimeter=0;entryX=0;entryY=0.5;entryDx=0;entryDy=0;entryPerimeter=0;strokeColor=#000000;strokeWidth=1;" parent="1" source="96" target="312" edge="1">
                    <mxGeometry relative="1" as="geometry"/>
                </mxCell>
                <mxCell id="338" style="edgeStyle=orthogonalEdgeStyle;shape=link;rounded=0;orthogonalLoop=1;jettySize=auto;html=1;exitX=1;exitY=0.5;exitDx=0;exitDy=0;exitPerimeter=0;entryX=0;entryY=0.5;entryDx=0;entryDy=0;entryPerimeter=0;strokeColor=#000000;strokeWidth=4;" parent="1" source="96" target="102" edge="1">
                    <mxGeometry relative="1" as="geometry"/>
                </mxCell>
                <mxCell id="339" style="edgeStyle=orthogonalEdgeStyle;rounded=0;orthogonalLoop=1;jettySize=auto;html=1;exitX=0.08;exitY=0.05;exitDx=0;exitDy=0;exitPerimeter=0;entryX=1;entryY=0.5;entryDx=0;entryDy=0;entryPerimeter=0;strokeColor=#000000;strokeWidth=1;" parent="1" source="96" target="289" edge="1">
                    <mxGeometry relative="1" as="geometry">
                        <Array as="points">
                            <mxPoint x="542" y="445"/>
                        </Array>
                    </mxGeometry>
                </mxCell>
                <mxCell id="340" style="edgeStyle=orthogonalEdgeStyle;rounded=0;orthogonalLoop=1;jettySize=auto;html=1;exitX=0.08;exitY=0.05;exitDx=0;exitDy=0;exitPerimeter=0;entryX=1;entryY=0.5;entryDx=0;entryDy=0;entryPerimeter=0;strokeColor=#000000;strokeWidth=2;shape=link;" parent="1" source="96" target="199" edge="1">
                    <mxGeometry relative="1" as="geometry">
                        <Array as="points">
                            <mxPoint x="520" y="746"/>
                            <mxPoint x="520" y="539"/>
                        </Array>
                    </mxGeometry>
                </mxCell>
                <mxCell id="96" value="" style="shape=mxgraph.cisco.switches.layer_3_switch;html=1;pointerEvents=1;dashed=0;fillColor=#036897;strokeColor=#ffffff;strokeWidth=2;verticalLabelPosition=bottom;verticalAlign=top;align=center;outlineConnect=0;" parent="1" vertex="1">
                    <mxGeometry x="532" y="740" width="127" height="114" as="geometry"/>
                </mxCell>
                <mxCell id="133" value="" style="edgeStyle=orthogonalEdgeStyle;rounded=0;orthogonalLoop=1;jettySize=auto;html=1;entryX=0.5;entryY=0;entryDx=0;entryDy=0;entryPerimeter=0;strokeWidth=1;fillColor=#1ba1e2;strokeColor=#FF0000;" parent="1" source="100" target="132" edge="1">
                    <mxGeometry relative="1" as="geometry">
                        <mxPoint x="495.5" y="1230" as="targetPoint"/>
                        <Array as="points">
                            <mxPoint x="496" y="1260"/>
                            <mxPoint x="624" y="1260"/>
                        </Array>
                    </mxGeometry>
                </mxCell>
                <mxCell id="256" style="edgeStyle=orthogonalEdgeStyle;rounded=0;orthogonalLoop=1;jettySize=auto;html=1;entryX=0;entryY=0.5;entryDx=0;entryDy=0;entryPerimeter=0;strokeWidth=1;strokeColor=#FF0000;" parent="1" source="100" target="123" edge="1">
                    <mxGeometry relative="1" as="geometry">
                        <Array as="points">
                            <mxPoint x="594" y="1130"/>
                            <mxPoint x="594" y="1130"/>
                        </Array>
                    </mxGeometry>
                </mxCell>
                <mxCell id="100" value="" style="shape=mxgraph.cisco.switches.layer_2_remote_switch;html=1;pointerEvents=1;dashed=0;fillColor=#036897;strokeColor=#ffffff;strokeWidth=2;verticalLabelPosition=bottom;verticalAlign=top;align=center;outlineConnect=0;" parent="1" vertex="1">
                    <mxGeometry x="250" y="1112" width="90" height="40" as="geometry"/>
                </mxCell>
                <mxCell id="303" style="edgeStyle=orthogonalEdgeStyle;rounded=0;orthogonalLoop=1;jettySize=auto;html=1;exitX=0.5;exitY=0;exitDx=0;exitDy=0;exitPerimeter=0;strokeColor=#FF0000;strokeWidth=1;" parent="1" source="102" target="283" edge="1">
                    <mxGeometry relative="1" as="geometry"/>
                </mxCell>
                <mxCell id="102" value="" style="shape=mxgraph.cisco.switches.layer_2_remote_switch;html=1;pointerEvents=1;dashed=0;fillColor=#036897;strokeColor=#ffffff;strokeWidth=2;verticalLabelPosition=bottom;verticalAlign=top;align=center;outlineConnect=0;" parent="1" vertex="1">
                    <mxGeometry x="865" y="861" width="90" height="41" as="geometry"/>
                </mxCell>
                <mxCell id="315" style="edgeStyle=orthogonalEdgeStyle;rounded=0;orthogonalLoop=1;jettySize=auto;html=1;exitX=0;exitY=0.5;exitDx=0;exitDy=0;exitPerimeter=0;entryX=1;entryY=0.5;entryDx=0;entryDy=0;entryPerimeter=0;strokeColor=#000000;strokeWidth=1;" parent="1" source="121" target="308" edge="1">
                    <mxGeometry relative="1" as="geometry"/>
                </mxCell>
                <mxCell id="121" value="" style="shape=mxgraph.cisco.switches.layer_2_remote_switch;html=1;pointerEvents=1;dashed=0;fillColor=#036897;strokeColor=#ffffff;strokeWidth=2;verticalLabelPosition=bottom;verticalAlign=top;align=center;outlineConnect=0;" parent="1" vertex="1">
                    <mxGeometry x="319" y="777.5" width="90" height="40" as="geometry"/>
                </mxCell>
                <mxCell id="123" value="" style="shape=mxgraph.cisco.switches.layer_2_remote_switch;html=1;pointerEvents=1;dashed=0;fillColor=#036897;strokeColor=#ffffff;strokeWidth=2;verticalLabelPosition=bottom;verticalAlign=top;align=center;outlineConnect=0;" parent="1" vertex="1">
                    <mxGeometry x="862.5" y="1112" width="90" height="40" as="geometry"/>
                </mxCell>
                <mxCell id="302" style="edgeStyle=orthogonalEdgeStyle;rounded=0;orthogonalLoop=1;jettySize=auto;html=1;exitX=0;exitY=0.5;exitDx=0;exitDy=0;exitPerimeter=0;strokeColor=#FF0000;strokeWidth=1;" parent="1" source="128" target="102" edge="1">
                    <mxGeometry relative="1" as="geometry"/>
                </mxCell>
                <mxCell id="128" value="" style="shape=mxgraph.cisco.switches.layer_2_remote_switch;html=1;pointerEvents=1;dashed=0;fillColor=#036897;strokeColor=#ffffff;strokeWidth=2;verticalLabelPosition=bottom;verticalAlign=top;align=center;outlineConnect=0;" parent="1" vertex="1">
                    <mxGeometry x="1034.5" y="861" width="90" height="41" as="geometry"/>
                </mxCell>
                <mxCell id="247" style="edgeStyle=orthogonalEdgeStyle;rounded=0;orthogonalLoop=1;jettySize=auto;html=1;entryX=0.5;entryY=1;entryDx=0;entryDy=0;entryPerimeter=0;strokeWidth=1;fillColor=#60a917;strokeColor=#FF0000;" parent="1" source="132" target="123" edge="1">
                    <mxGeometry relative="1" as="geometry"/>
                </mxCell>
                <mxCell id="132" value="" style="shape=mxgraph.cisco.switches.layer_2_remote_switch;html=1;pointerEvents=1;dashed=0;fillColor=#036897;strokeColor=#ffffff;strokeWidth=2;verticalLabelPosition=bottom;verticalAlign=top;align=center;outlineConnect=0;" parent="1" vertex="1">
                    <mxGeometry x="560" y="1240" width="90" height="40" as="geometry"/>
                </mxCell>
                <mxCell id="139" value="&lt;span&gt;南教学楼&amp;nbsp;&lt;/span&gt;&lt;br&gt;&lt;span&gt;H3C S5120-48P-EI-D&lt;/span&gt;" style="whiteSpace=wrap;html=1;dashed=0;verticalAlign=top;strokeColor=#ffffff;strokeWidth=2;fillColor=#036897;" parent="1" vertex="1">
                    <mxGeometry x="851" y="919.5" width="125" height="40" as="geometry"/>
                </mxCell>
                <mxCell id="141" value="&lt;span&gt;南教学楼&lt;/span&gt;&lt;br&gt;&lt;span&gt;H3C S5120-24P-EI-D&lt;/span&gt;" style="whiteSpace=wrap;html=1;dashed=0;verticalAlign=top;strokeColor=#ffffff;strokeWidth=2;fillColor=#036897;" parent="1" vertex="1">
                    <mxGeometry x="1021" y="919.5" width="125" height="40" as="geometry"/>
                </mxCell>
                <mxCell id="159" value="ikuai 软路由&lt;br&gt;port 4*10G 2*1G" style="whiteSpace=wrap;html=1;dashed=0;verticalAlign=top;strokeColor=#ffffff;strokeWidth=2;fillColor=#036897;" parent="1" vertex="1">
                    <mxGeometry x="656.5" y="313.5" width="134.5" height="45" as="geometry"/>
                </mxCell>
                <mxCell id="161" value="学生机房1&lt;br&gt;H3C S5120-48P-EI-D" style="whiteSpace=wrap;html=1;dashed=0;verticalAlign=top;strokeColor=#ffffff;strokeWidth=2;fillColor=#036897;" parent="1" vertex="1">
                    <mxGeometry x="116" y="1114" width="126.5" height="45" as="geometry"/>
                </mxCell>
                <mxCell id="163" value="学生机房1&lt;br&gt;H3C S5120-24P-EI-D&lt;br&gt;" style="whiteSpace=wrap;html=1;dashed=0;verticalAlign=top;strokeColor=#ffffff;strokeWidth=2;fillColor=#036897;" parent="1" vertex="1">
                    <mxGeometry x="533.5" y="1300" width="125.5" height="45" as="geometry"/>
                </mxCell>
                <mxCell id="166" value="环形 irf -1" style="whiteSpace=wrap;html=1;dashed=0;verticalAlign=top;strokeColor=#FF0000;strokeWidth=2;fillColor=#FF0000;fontColor=#ffffff;" parent="1" vertex="1">
                    <mxGeometry x="560" y="1171" width="107" height="26" as="geometry"/>
                </mxCell>
                <mxCell id="180" value="" style="shape=mxgraph.cisco.switches.layer_2_remote_switch;html=1;pointerEvents=1;dashed=0;fillColor=#036897;strokeColor=#ffffff;strokeWidth=2;verticalLabelPosition=bottom;verticalAlign=top;align=center;outlineConnect=0;" parent="1" vertex="1">
                    <mxGeometry x="829" y="433.25" width="90" height="40" as="geometry"/>
                </mxCell>
                <mxCell id="181" value="学生公寓&lt;br&gt;H3C S5120-24P-EI-D" style="whiteSpace=wrap;html=1;dashed=0;verticalAlign=top;strokeColor=#ffffff;strokeWidth=2;fillColor=#036897;" parent="1" vertex="1">
                    <mxGeometry x="937.5" y="433.25" width="145" height="40" as="geometry"/>
                </mxCell>
                <mxCell id="199" value="" style="shape=mxgraph.cisco.servers.storage_server;html=1;pointerEvents=1;dashed=0;fillColor=#036897;strokeColor=#ffffff;strokeWidth=2;verticalLabelPosition=bottom;verticalAlign=top;align=center;outlineConnect=0;" parent="1" vertex="1">
                    <mxGeometry x="309.5" y="507.5" width="51.25" height="63" as="geometry"/>
                </mxCell>
                <mxCell id="201" value="TrueNas&lt;br&gt;ZFS2 5 HDD 24T" style="whiteSpace=wrap;html=1;dashed=0;verticalAlign=top;strokeColor=#ffffff;strokeWidth=2;fillColor=#036897;" parent="1" vertex="1">
                    <mxGeometry x="184" y="530.5" width="106" height="40" as="geometry"/>
                </mxCell>
                <mxCell id="234" value="行政楼&lt;br&gt;Huawei&amp;nbsp; S5720S-52P-LI-AC" style="whiteSpace=wrap;html=1;dashed=0;verticalAlign=top;strokeColor=#ffffff;strokeWidth=2;fillColor=#036897;" parent="1" vertex="1">
                    <mxGeometry x="283" y="720" width="168" height="40" as="geometry"/>
                </mxCell>
                <mxCell id="235" value="学生机房2&lt;br&gt;H3C S5120-48P-EI-D" style="whiteSpace=wrap;html=1;dashed=0;verticalAlign=top;strokeColor=#ffffff;strokeWidth=2;fillColor=#036897;" parent="1" vertex="1">
                    <mxGeometry x="971" y="1112" width="130" height="40" as="geometry"/>
                </mxCell>
                <mxCell id="301" style="edgeStyle=orthogonalEdgeStyle;rounded=0;orthogonalLoop=1;jettySize=auto;html=1;exitX=0.5;exitY=1;exitDx=0;exitDy=0;exitPerimeter=0;entryX=0.5;entryY=0;entryDx=0;entryDy=0;entryPerimeter=0;strokeColor=#FF0000;strokeWidth=1;" parent="1" source="281" target="128" edge="1">
                    <mxGeometry relative="1" as="geometry"/>
                </mxCell>
                <mxCell id="281" value="" style="shape=mxgraph.cisco.switches.layer_2_remote_switch;html=1;pointerEvents=1;dashed=0;fillColor=#036897;strokeColor=#ffffff;strokeWidth=2;verticalLabelPosition=bottom;verticalAlign=top;align=center;outlineConnect=0;" parent="1" vertex="1">
                    <mxGeometry x="1034.25" y="687" width="90" height="40" as="geometry"/>
                </mxCell>
                <mxCell id="300" style="edgeStyle=orthogonalEdgeStyle;rounded=0;orthogonalLoop=1;jettySize=auto;html=1;entryX=0;entryY=0.5;entryDx=0;entryDy=0;entryPerimeter=0;strokeColor=#FF0000;strokeWidth=1;" parent="1" source="283" target="281" edge="1">
                    <mxGeometry relative="1" as="geometry"/>
                </mxCell>
                <mxCell id="283" value="" style="shape=mxgraph.cisco.switches.layer_2_remote_switch;html=1;pointerEvents=1;dashed=0;fillColor=#036897;strokeColor=#ffffff;strokeWidth=2;verticalLabelPosition=bottom;verticalAlign=top;align=center;outlineConnect=0;" parent="1" vertex="1">
                    <mxGeometry x="864.25" y="687" width="90" height="40" as="geometry"/>
                </mxCell>
                <mxCell id="284" value="北教学楼&amp;nbsp;&lt;br&gt;H3C S5120-48P-EI-D" style="whiteSpace=wrap;html=1;dashed=0;verticalAlign=top;strokeColor=#ffffff;strokeWidth=2;fillColor=#036897;" parent="1" vertex="1">
                    <mxGeometry x="1003.75" y="633" width="135" height="38" as="geometry"/>
                </mxCell>
                <mxCell id="285" value="北教学楼&lt;br&gt;H3C S5120-24P-EI-D" style="whiteSpace=wrap;html=1;dashed=0;verticalAlign=top;strokeColor=#ffffff;strokeWidth=2;fillColor=#036897;" parent="1" vertex="1">
                    <mxGeometry x="851" y="633" width="126" height="38" as="geometry"/>
                </mxCell>
                <mxCell id="289" value="" style="shape=mxgraph.cisco.servers.www_server;html=1;pointerEvents=1;dashed=0;fillColor=#036897;strokeColor=#ffffff;strokeWidth=2;verticalLabelPosition=bottom;verticalAlign=top;align=center;outlineConnect=0;" parent="1" vertex="1">
                    <mxGeometry x="301.5" y="416" width="67.5" height="57" as="geometry"/>
                </mxCell>
                <mxCell id="290" value="ubuntu 20.14&lt;br&gt;docker 服务器" style="whiteSpace=wrap;html=1;dashed=0;verticalAlign=top;strokeColor=#ffffff;strokeWidth=2;fillColor=#036897;" parent="1" vertex="1">
                    <mxGeometry x="192" y="433" width="90" height="40" as="geometry"/>
                </mxCell>
                <mxCell id="304" value="环形 irf -2" style="whiteSpace=wrap;html=1;dashed=0;verticalAlign=top;strokeColor=#FF0000;strokeWidth=2;fillColor=#FF0000;fontColor=#ffffff;" parent="1" vertex="1">
                    <mxGeometry x="944" y="764.5" width="107" height="26" as="geometry"/>
                </mxCell>
                <mxCell id="305" style="edgeStyle=orthogonalEdgeStyle;rounded=0;orthogonalLoop=1;jettySize=auto;html=1;exitX=0.5;exitY=1;exitDx=0;exitDy=0;exitPerimeter=0;entryX=0.5;entryY=0.32;entryDx=0;entryDy=0;entryPerimeter=0;strokeColor=#000000;strokeWidth=2;" parent="1" source="306" target="308" edge="1">
                    <mxGeometry relative="1" as="geometry"/>
                </mxCell>
                <mxCell id="306" value="" style="shape=mxgraph.cisco.routers.wireless_router;html=1;pointerEvents=1;dashed=0;fillColor=#036897;strokeColor=#ffffff;strokeWidth=2;verticalLabelPosition=bottom;verticalAlign=top;align=center;outlineConnect=0;" parent="1" vertex="1">
                    <mxGeometry x="126.25" y="677" width="60" height="70" as="geometry"/>
                </mxCell>
                <mxCell id="317" style="edgeStyle=orthogonalEdgeStyle;rounded=0;orthogonalLoop=1;jettySize=auto;html=1;exitX=0.5;exitY=1;exitDx=0;exitDy=0;exitPerimeter=0;entryX=0.5;entryY=0.32;entryDx=0;entryDy=0;entryPerimeter=0;strokeColor=#000000;strokeWidth=2;" parent="1" source="308" target="309" edge="1">
                    <mxGeometry relative="1" as="geometry"/>
                </mxCell>
                <mxCell id="308" value="" style="shape=mxgraph.cisco.routers.wireless_router;html=1;pointerEvents=1;dashed=0;fillColor=#036897;strokeColor=#ffffff;strokeWidth=2;verticalLabelPosition=bottom;verticalAlign=top;align=center;outlineConnect=0;" parent="1" vertex="1">
                    <mxGeometry x="126.25" y="762" width="60" height="70" as="geometry"/>
                </mxCell>
                <mxCell id="309" value="" style="shape=mxgraph.cisco.routers.wireless_router;html=1;pointerEvents=1;dashed=0;fillColor=#036897;strokeColor=#ffffff;strokeWidth=2;verticalLabelPosition=bottom;verticalAlign=top;align=center;outlineConnect=0;" parent="1" vertex="1">
                    <mxGeometry x="126.25" y="847" width="60" height="70" as="geometry"/>
                </mxCell>
                <mxCell id="310" value="机器人学院&lt;br&gt;Asus AI mesh" style="whiteSpace=wrap;html=1;dashed=0;verticalAlign=top;strokeColor=#ffffff;strokeWidth=2;fillColor=#036897;" parent="1" vertex="1">
                    <mxGeometry x="79" y="952" width="145" height="40" as="geometry"/>
                </mxCell>
                <mxCell id="312" value="" style="shape=mxgraph.cisco.switches.layer_2_remote_switch;html=1;pointerEvents=1;dashed=0;fillColor=#036897;strokeColor=#ffffff;strokeWidth=2;verticalLabelPosition=bottom;verticalAlign=top;align=center;outlineConnect=0;" parent="1" vertex="1">
                    <mxGeometry x="829" y="507.75" width="90" height="40" as="geometry"/>
                </mxCell>
                <mxCell id="313" value="食堂&lt;br&gt;H3C S5120-24P-EI-D" style="whiteSpace=wrap;html=1;dashed=0;verticalAlign=top;strokeColor=#ffffff;strokeWidth=2;fillColor=#036897;" parent="1" vertex="1">
                    <mxGeometry x="935.5" y="504.25" width="154" height="40" as="geometry"/>
                </mxCell>
                <mxCell id="328" value="" style="endArrow=none;html=1;strokeColor=#000000;strokeWidth=1;" parent="1" edge="1">
                    <mxGeometry width="50" height="50" relative="1" as="geometry">
                        <mxPoint x="166" y="202" as="sourcePoint"/>
                        <mxPoint x="231" y="202" as="targetPoint"/>
                    </mxGeometry>
                </mxCell>
                <mxCell id="329" value="" style="endArrow=none;html=1;strokeColor=#000000;strokeWidth=2;shape=link;" parent="1" edge="1">
                    <mxGeometry width="50" height="50" relative="1" as="geometry">
                        <mxPoint x="166" y="231" as="sourcePoint"/>
                        <mxPoint x="231" y="231" as="targetPoint"/>
                    </mxGeometry>
                </mxCell>
                <mxCell id="330" value="" style="endArrow=none;html=1;strokeColor=#000000;strokeWidth=4;shape=link;" parent="1" edge="1">
                    <mxGeometry width="50" height="50" relative="1" as="geometry">
                        <mxPoint x="166.5" y="259.5" as="sourcePoint"/>
                        <mxPoint x="231.5" y="259.5" as="targetPoint"/>
                    </mxGeometry>
                </mxCell>
                <mxCell id="331" value="&lt;font color=&quot;#0d0d0d&quot;&gt;单线 1GMBPS&lt;br&gt;&lt;br&gt;LACP 2GBMPS&lt;br&gt;&lt;br&gt;LACP 4GBMPS&lt;br&gt;&lt;br&gt;IRF 1GBMPS&lt;/font&gt;" style="rounded=0;whiteSpace=wrap;html=1;fillColor=#FFFFFF;opacity=0;align=left;" parent="1" vertex="1">
                    <mxGeometry x="244" y="190" width="120" height="110" as="geometry"/>
                </mxCell>
                <mxCell id="332" value="" style="endArrow=none;html=1;strokeColor=#FF0000;strokeWidth=1;" parent="1" edge="1">
                    <mxGeometry width="50" height="50" relative="1" as="geometry">
                        <mxPoint x="166" y="290" as="sourcePoint"/>
                        <mxPoint x="231" y="290" as="targetPoint"/>
                    </mxGeometry>
                </mxCell>
                <mxCell id="334" value="&lt;b&gt;&lt;font style=&quot;font-size: 37px&quot; color=&quot;#000000&quot;&gt;新世纪学校网络拓扑-大众版&lt;/font&gt;&lt;/b&gt;" style="text;html=1;strokeColor=none;fillColor=none;align=center;verticalAlign=middle;whiteSpace=wrap;rounded=0;opacity=0;" parent="1" vertex="1">
                    <mxGeometry x="102" y="40" width="980" height="70" as="geometry"/>
                </mxCell>
                <mxCell id="335" value="&lt;font color=&quot;#000000&quot;&gt;设计,施工,配置:陈昱安&lt;/font&gt;" style="rounded=0;whiteSpace=wrap;html=1;strokeColor=#FF0000;fillColor=#FFFFFF;opacity=0;" parent="1" vertex="1">
                    <mxGeometry x="470.5" y="125" width="260" height="40" as="geometry"/>
                </mxCell>
                <mxCell id="341" style="edgeStyle=orthogonalEdgeStyle;shape=link;rounded=0;orthogonalLoop=1;jettySize=auto;html=1;exitX=0.5;exitY=1;exitDx=0;exitDy=0;exitPerimeter=0;strokeColor=#000000;strokeWidth=2;" parent="1" source="132" target="132" edge="1">
                    <mxGeometry relative="1" as="geometry"/>
                </mxCell>
                <mxCell id="343" style="edgeStyle=orthogonalEdgeStyle;curved=0;rounded=1;sketch=0;orthogonalLoop=1;jettySize=auto;html=1;exitX=0.5;exitY=0;exitDx=0;exitDy=0;entryX=0.75;entryY=0;entryDx=0;entryDy=0;strokeColor=#0D0D0D;fillColor=#A8DADC;fontColor=#1D3557;" edge="1" parent="1" source="49" target="49">
                    <mxGeometry relative="1" as="geometry"/>
                </mxCell>
            </root>
        </mxGraphModel>
    </diagram>
</mxfile>